# AST/ASF file generated using VICON BodyLanguage
# -----------------------------------------------
:version 1.10
:name VICON
:units
  mass 1.0
  length 0.45
  angle deg
:documentation
   .ast/.asf automatically generated from VICON data using
   VICON BodyBuilder and BodyLanguage model FoxedUp or BRILLIANT.MOD
:root
   order TX TY TZ RX RY RZ
   axis XYZ
   position 0 0 0  
   orientation 0 0 0 
:bonedata
  begin
     id 1 
     name lhipjoint
     direction 0.692814 -0.645514 0.321437 
     length 2.38754 
     axis 0 0 0  XYZ
  end
  begin
     id 2 
     name lfemur
     direction 0.34202 -0.939693 0  
     length 6.41921  
     axis 0 0 20  XYZ
    dof rx ry rz
    limits (-160.0 20.0)
           (-70.0 70.0)
           (-60.0 70.0)
  end
  begin
     id 3 
     name ltibia
     direction 0.34202 -0.939693 0   
     length 6.98247   
     axis 0 0 20   XYZ
    dof rx
    limits (-10.0 170.0)
  end
  begin
     id 4 
     name lfoot
     direction 0.0947186 -0.260237 0.960888   
     length 1.83034   
     axis -90 7.62852e-016 20   XYZ
    dof rx rz
    limits (-45.0 90.0)
           (-70.0 20.0)
  end
  begin
     id 5 
     name ltoes
     direction 1.53538e-011 -4.21952e-011 1   
     length 0.920499   
     axis -90 7.62852e-016 20   XYZ
    dof rx
    limits (-90.0 20.0)
  end
  begin
     id 6 
     name rhipjoint
     direction -0.631686 -0.693949 0.345555   
     length 2.2209  
     axis 0 0 0  XYZ 
  end
  begin
     id 7 
     name rfemur
     direction -0.34202 -0.939693 0   
     length 6.49542   
     axis 0 0 -20   XYZ
    dof rx ry rz
    limits (-160.0 20.0)
           (-70.0 70.0)
           (-70.0 60.0)
  end
  begin
     id 8 
     name rtibia
     direction -0.34202 -0.939693 0   
     length 7.21712   
     axis 0 0 -20   XYZ
    dof rx
    limits (-10.0 170.0)
 end
 begin
     id 9 
     name rfoot
     direction -0.0825378 -0.226771 0.970444   
     length 1.89724  
     axis -90 -7.62852e-016 -20   XYZ
    dof rx rz
    limits (-45.0 90.0)
           (-20.0 70.0)
  end
  begin
     id 10 
     name rtoes
     direction -1.53515e-011 -4.22016e-011 1   
     length 0.955868   
     axis -90 -7.62852e-016 -20   XYZ
    dof rx
    limits (-90.0 20.0)
  end
  begin
     id 11 
     name lowerback
     direction -0.0104711 0.984802 -0.173368   
     length 1.84931   
     axis 0 0 0   XYZ
    dof rx ry rz
    limits (-20.0 45.0)
           (-30.0 30.0)
           (-30.0 30.0)
  end
  begin
     id 12 
     name upperback
     direction -0.00286433 0.999996 -0.000382853   
     length 1.85768   
     axis 0 0 0   XYZ
    dof rx ry rz
    limits (-20.0 45.0)
           (-30.0 30.0)
           (-30.0 30.0)
  end
  begin
     id 13 
     name thorax
     direction 0.00167534 0.996793 0.0800069   
     length 1.92   
     axis 0 0 0   XYZ
    dof rx ry rz
    limits (-20.0 45.0)
           (-30.0 30.0)
           (-30.0 30.0)
  end
  begin
     id 14 
     name lowerneck
     direction -0.0672491 0.995415 0.068018   
     length 1.58923   
     axis 0 0 0   XYZ
    dof rx ry rz
    limits (-20.0 45.0)
           (-30.0 30.0)
           (-30.0 30.0)
  end
  begin
     id 15 
     name upperneck
     direction 0.0958019 0.982476 -0.159884   
     length 1.60189   
     axis 0 0 0   XYZ
    dof rx ry rz
    limits (-20.0 45.0)
           (-30.0 30.0)
           (-30.0 30.0)
  end
  begin
     id 16
     name head
     direction 0.032989 0.997338 -0.0650226  
     length 1.61681  
     axis 0 0 0   XYZ
    dof rx ry rz
    limits (-20.0 45.0)
           (-30.0 30.0)
           (-30.0 30.0)
  end
  begin
     id 17 
     name lclavicle
     direction 0.954279 0.298875 -0.00496069  
     length 2.99449  
     axis 0 0 0   XYZ
    dof ry rz
    limits (-20.0 10.0)
           (0.0 20.0)
  end
  begin
     id 18 
     name lhumerus
     direction 1 -4.48985e-011 -4.2057e-027   
     length 4.79185   
     axis 180 -30 -90   XYZ
    dof rx ry rz
    limits (-60.0 90.0)
           (-90.0 90.0)
           (-90.0 90.0)
  end
  begin
     id 19
     name lradius
     direction 1 -4.48945e-011 1.15441e-028   
     length 2.65553   
     axis 180 -30 -90   XYZ
    dof rx
    limits (-10.0 170.0)
  end
  begin
     id 20
     name lwrist
     direction 1 -4.4899e-011 4.8894e-028   
     length 1.32777   
     axis -2.56392e-016 90 90   XYZ
    dof ry
    limits (-180.0 0.0)
 end
  begin
     id 21 
     name lhand
     direction 1 -4.48908e-011 9.7788e-028   
     length 0.743904   
     axis -6.23971e-016 90 90   XYZ
    dof rx rz
    limits (-90.0 90.0)
           (-45.0 45.0)
  end
  begin
     id 22 
     name lfingers
     direction 1 -4.49068e-011 1.95576e-027   
     length 0.599754   
     axis -1.24794e-015 90 90   XYZ
    dof rx
    limits (0.0 90.0)
  end
  begin
     id 23
     name lthumb
     direction 0.707107 -6.34883e-011 0.707107   
     length 0.861131   
     axis -90 45 2.85299e-015   XYZ
    dof rx rz
    limits (-45.0 45.0)
           (-45.0 45.0)
  end
  begin
     id 24 
     name rclavicle
     direction -0.957921 0.286916 0.00811568   
     length 3.06817  
     axis 0 0 0   XYZ 
    dof ry rz
    limits (-10.0 20.0)
           (-20.0 0.0)
  end
  begin
     id 25 
     name rhumerus
     direction -1 -4.48971e-011 -3.07942e-027  
     length 4.77254   
     axis 180 30 90   XYZ
    dof rx ry rz
    limits (-90.0 60.0)
           (-90.0 90.0)
           (-90.0 90.0)
  end
  begin
     id 26 
     name rradius
     direction -1 -4.48957e-011 -9.6815e-028   
     length 2.75995   
     axis 180 30 90   XYZ
    dof rx
    limits (-10.0 170.0)
  end
  begin
     id 27 
     name rwrist
     direction -1 -4.48979e-011 4.8894e-028   
     length 1.37997   
     axis -2.56392e-016 -90 -90   XYZ
    dof ry
    limits (-180.0 0.0)
  end
  begin
     id 28
     name rhand
     direction -1 -4.48906e-011 9.7788e-028   
     length 0.701619   
     axis -6.23971e-016 -90 -90   XYZ
    dof rx rz
    limits (-90.0 90.0)
           (-45.0 45.0)
  end
  begin
     id 29
     name rfingers
     direction -1 -4.49018e-011 1.95576e-027   
     length 0.565663   
     axis -1.24794e-015 -90 -90   XYZ
    dof rx
    limits (0.0 90.0)
  end
  begin
     id 30
     name rthumb
     direction -0.707107 -6.34881e-011 0.707107   
     length 0.812183   
     axis -90 -45 -2.85299e-015   XYZ
    dof rx rz
    limits (-45.0 45.0)
           (-45.0 45.0)
  end
:hierarchy
  begin
    root lhipjoint rhipjoint lowerback
    lhipjoint lfemur
    lfemur ltibia
    ltibia lfoot
    lfoot ltoes
    rhipjoint rfemur
    rfemur rtibia
    rtibia rfoot
    rfoot rtoes
    lowerback upperback
    upperback thorax
    thorax lowerneck lclavicle rclavicle
    lowerneck upperneck
    upperneck head
    lclavicle lhumerus
    lhumerus lradius
    lradius lwrist
    lwrist lhand lthumb
    lhand lfingers
    rclavicle rhumerus
    rhumerus rradius
    rradius rwrist
    rwrist rhand rthumb
    rhand rfingers
  end

#!OML:ASF F:\VICON\USERDATA\INSTALL\rory3\rory3.ASF
:FULLY-SPECIFIED
:DEGREES
1168
root 0.350069 14.843 -1.99654 0.0274231 2.51197 0.58997
lowerback 21.3683 1.05664 -1.60312
upperback 6.76429 1.04731 -0.0999559
thorax -4.59824 0.514253 0.546939
lowerneck -6.31717 -10.4892 -15.7145
upperneck 12.9607 -14.2164 12.4987
head 7.0286 -6.86324 5.23496
rclavicle -1.49685e-015 -9.12492e-015
rhumerus 26.1131 18.2571 -72.5125
rradius 26.5246
rwrist 48.2193
rhand -30.4749 20.2129
rfingers 7.12502
rthumb -3.77609 -9.73342
lclavicle -1.49685e-015 -9.12492e-015
lhumerus 27.6392 -21.7737 75.047
lradius 23.6194
lwrist -29.65
lhand -28.2579 5.68868
lfingers 7.12502
lthumb -1.63503 35.6622
rfemur -30.1904 1.08992 14.4914
rtibia 55.0997
rfoot -19.2528 -9.32106
rtoes -18.5581
lfemur -29.9697 -3.79582 -16.9471
ltibia 51.9185
lfoot -16.3833 -2.31664
ltoes -12.9167
1169
root 0.348773 14.849 -1.98768 0.0556281 2.48855 0.593833
lowerback 21.2291 1.08235 -1.65885
upperback 6.73741 1.07242 -0.08934
thorax -4.55763 0.526228 0.585488
lowerneck -6.29193 -10.4648 -15.7233
upperneck 12.971 -14.1779 12.4484
head 7.01853 -6.84927 5.22615
rclavicle -3.13202e-015 -5.15831e-015
rhumerus 26.0586 18.2563 -72.5226
rradius 26.4756
rwrist 48.2886
rhand -30.6124 20.0693
rfingers 7.12502
rthumb -3.90886 -9.87457
lclavicle -3.13202e-015 -5.15831e-015
lhumerus 27.6713 -21.9138 74.958
lradius 23.5481
lwrist -29.6845
lhand -28.1865 5.58751
lfingers 7.12502
lthumb -1.566 35.5615
rfemur -30.0911 1.1018 14.5091
rtibia 54.9091
rfoot -19.354 -9.60956
rtoes -20.4903
lfemur -29.8888 -3.77634 -16.9466
ltibia 51.8028
lfoot -16.3923 -2.30721
ltoes -13.2774
1170
root 0.347043 14.8575 -1.97923 0.0303834 2.46221 0.558906
lowerback 21.1251 1.09285 -1.68557
upperback 6.74128 1.08413 -0.066815
thorax -4.5013 0.531367 0.623411
lowerneck -6.21326 -10.4311 -15.7515
upperneck 12.8604 -14.1329 12.4681
head 6.96639 -6.8315 5.24721
rclavicle -1.7169e-014 -3.45155e-016
rhumerus 26.1122 18.3011 -72.4909
rradius 26.394
rwrist 48.2908
rhand -30.6111 20.0216
rfingers 7.12502
rthumb -3.90758 -9.92234
lclavicle -1.7169e-014 -3.45155e-016
lhumerus 27.7052 -21.9371 74.9
lradius 23.4678
lwrist -29.7739
lhand -28.1713 5.44746
lfingers 7.12502
lthumb -1.55139 35.4216
rfemur -29.92 1.13268 14.573
rtibia 54.7049
rfoot -19.3638 -9.83285
rtoes -21.6023
lfemur -29.7569 -3.7658 -16.9049
ltibia 51.6875
lfoot -16.3215 -2.28637
ltoes -12.8392
1171
root 0.346449 14.8641 -1.97323 -0.00952142 2.41672 0.483294
lowerback 21.0752 1.09758 -1.62463
upperback 6.73396 1.10373 -0.0606843
thorax -4.48325 0.540951 0.591141
lowerneck -6.21719 -10.4171 -15.7627
upperneck 12.866 -14.1191 12.5062
head 6.9705 -6.82299 5.2632
rclavicle -2.31398e-016 8.59744e-015
rhumerus 26.1695 18.2924 -72.5176
rradius 26.2552
rwrist 48.279
rhand -30.4908 20.073
rfingers 7.12502
rthumb -3.79147 -9.87303
lclavicle -2.31398e-016 8.59744e-015
lhumerus 27.7153 -22.1267 74.7262
lradius 23.522
lwrist -29.5283
lhand -28.0901 5.67941
lfingers 7.12502
lthumb -1.47292 35.6541
rfemur -29.7603 1.1857 14.6635
rtibia 54.5154
rfoot -19.2576 -9.83517
rtoes -21.7201
lfemur -29.6149 -3.74535 -16.8256
ltibia 51.5747
lfoot -16.2897 -2.22826
ltoes -12.8217
1172
root 0.346701 14.8707 -1.96844 -0.0478136 2.39487 0.40185
lowerback 21.0862 1.09048 -1.52467
upperback 6.69569 1.11358 -0.0679732
thorax -4.52871 0.546437 0.523526
lowerneck -6.31678 -10.4207 -15.7174
upperneck 13.0016 -14.1203 12.4605
head 7.02446 -6.81984 5.23591
rclavicle 1.11816e-016 9.0447e-015
rhumerus 26.1454 18.2504 -72.6025
rradius 26.1291
rwrist 48.3374
rhand -30.577 20.2352
rfingers 7.12502
rthumb -3.87468 -9.70935
lclavicle 1.11816e-016 9.0447e-015
lhumerus 27.6188 -22.0791 74.7809
lradius 23.5301
lwrist -29.7173
lhand -27.9933 5.74975
lfingers 7.12502
lthumb -1.37942 35.725
rfemur -29.6111 1.21515 14.7584
rtibia 54.3477
rfoot -19.1966 -9.81087
rtoes -21.6345
lfemur -29.4917 -3.73281 -16.7311
ltibia 51.4523
lfoot -16.2643 -2.28843
ltoes -12.7882
1173
root 0.345406 14.8788 -1.96263 -0.0413072 2.3812 0.361206
lowerback 21.054 1.08805 -1.49685
upperback 6.63249 1.1157 -0.0727971
thorax -4.57991 0.548049 0.501852
lowerneck -6.35679 -10.3995 -15.6415
upperneck 13.1099 -14.0857 12.3483
head 7.04665 -6.80469 5.18988
rclavicle -1.02871e-014 2.08227e-014
rhumerus 26.0593 18.1879 -72.7217
rradius 26.0559
rwrist 48.394
rhand -30.641 20.4281
rfingers 7.12502
rthumb -3.93646 -9.51526
lclavicle -1.02871e-014 2.08227e-014
lhumerus 27.4626 -21.8142 75.0123
lradius 23.4274
lwrist -30.2679
lhand -28.0203 5.6598
lfingers 7.12502
lthumb -1.40555 35.6349
rfemur -29.5182 1.23846 14.8186
rtibia 54.2063
rfoot -19.1755 -9.8295
rtoes -21.6059
lfemur -29.3933 -3.73078 -16.6772
ltibia 51.3142
lfoot -16.2459 -2.32763
ltoes -12.929
1174
root 0.343036 14.8884 -1.95609 -0.011283 2.36354 0.3643
lowerback 20.9839 1.09354 -1.54559
upperback 6.58429 1.11326 -0.0812942
thorax -4.59649 0.547075 0.521635
lowerneck -6.43828 -10.3848 -15.6153
upperneck 13.1914 -14.0598 12.3171
head 7.07877 -6.78959 5.17502
rclavicle 3.11843e-015 -1.41386e-014
rhumerus 26.0404 18.0984 -72.8614
rradius 25.9342
rwrist 48.5182
rhand -30.5779 20.5978
rfingers 7.12502
rthumb -3.87556 -9.34673
lclavicle 3.11843e-015 -1.41386e-014
lhumerus 27.4337 -21.8043 74.9974
lradius 23.3331
lwrist -30.3755
lhand -28.1987 5.60771
lfingers 7.12502
lthumb -1.57784 35.5816
rfemur -29.4684 1.2641 14.8305
rtibia 54.0819
rfoot -19.1256 -9.82739
rtoes -21.6055
lfemur -29.2996 -3.73658 -16.6637
ltibia 51.1338
lfoot -16.1778 -2.30378
ltoes -12.6611
1175
root 0.340633 14.8975 -1.95012 -0.000233584 2.34094 0.366003
lowerback 20.9437 1.08827 -1.62355
upperback 6.52453 1.09094 -0.0781278
thorax -4.64107 0.536448 0.574829
lowerneck -6.58439 -10.3552 -15.5711
upperneck 13.43 -14.0049 12.1961
head 7.16022 -6.7622 5.12827
rclavicle 1.25483e-015 2.75814e-015
rhumerus 26.0421 18.1305 -72.9665
rradius 25.7909
rwrist 48.5968
rhand -30.6569 20.5253
rfingers 7.12502
rthumb -3.95177 -9.41779
lclavicle 1.25483e-015 2.75814e-015
lhumerus 27.3803 -21.7629 74.9511
lradius 23.236
lwrist -30.3574
lhand -28.1649 5.4578
lfingers 7.12502
lthumb -1.54514 35.4319
rfemur -29.4013 1.3275 14.8331
rtibia 53.9717
rfoot -19.0096 -9.66575
rtoes -20.8338
lfemur -29.1691 -3.74736 -16.6556
ltibia 50.9316
lfoot -16.1087 -2.24391
ltoes -12.6158
1176
root 0.340407 14.9113 -1.94395 0.00786972 2.34504 0.442021
lowerback 20.8978 1.08417 -1.69808
upperback 6.46659 1.06909 -0.108377
thorax -4.68005 0.526377 0.5903
lowerneck -6.61653 -10.3267 -15.5712
upperneck 13.5942 -13.967 12.1445
head 7.20915 -6.74547 5.11464
rclavicle 6.17475e-015 -3.47873e-016
rhumerus 25.9997 18.1086 -73.0661
rradius 25.7041
rwrist 48.6955
rhand -30.6271 20.4948
rfingers 7.12502
rthumb -3.92308 -9.44881
lclavicle 6.17475e-015 -3.47873e-016
lhumerus 27.3259 -21.8355 74.8973
lradius 23.1885
lwrist -30.2111
lhand -28.0488 5.38754
lfingers 7.12502
lthumb -1.43306 35.3625
rfemur -29.3027 1.34046 14.7382
rtibia 53.8679
rfoot -18.8843 -9.34809
rtoes -18.7422
lfemur -29.006 -3.80801 -16.7482
ltibia 50.7077
lfoot -16.0415 -2.17033
ltoes -12.7401
1177
root 0.34084 14.9224 -1.937 0.0434393 2.3525 0.441876
lowerback 20.7923 1.06829 -1.68198
upperback 6.42411 1.0528 -0.120803
thorax -4.67065 0.518702 0.572876
lowerneck -6.63434 -10.3039 -15.597
upperneck 13.6701 -13.9427 12.1784
head 7.23759 -6.73206 5.13226
rclavicle -3.97569e-016 -4.87022e-015
rhumerus 25.9497 18.0106 -73.1985
rradius 25.6354
rwrist 48.7923
rhand -30.5148 20.6244
rfingers 7.12502
rthumb -3.81464 -9.32121
lclavicle -3.97569e-016 -4.87022e-015
lhumerus 27.2541 -21.7808 74.9484
lradius 23.1268
lwrist -30.2236
lhand -28.0061 5.3201
lfingers 7.12502
lthumb -1.39182 35.2953
rfemur -29.219 1.34842 14.7361
rtibia 53.7413
rfoot -18.8163 -9.24408
rtoes -18.016
lfemur -28.9059 -3.88754 -16.7483
ltibia 50.5265
lfoot -15.9953 -2.14861
ltoes -12.8966
1178
root 0.340166 14.9279 -1.93072 0.0963448 2.34478 0.481327
lowerback 20.7208 1.073 -1.72798
upperback 6.3572 1.04928 -0.139995
thorax -4.70622 0.517595 0.579729
lowerneck -6.65386 -10.2824 -15.599
upperneck 13.7261 -13.9148 12.174
head 7.25471 -6.71822 5.13399
rclavicle -1.82633e-015 -9.98893e-015
rhumerus 25.9059 18.1089 -73.1772
rradius 25.6073
rwrist 48.5858
rhand -30.4259 20.4668
rfingers 7.12502
rthumb -3.72872 -9.48029
lclavicle -1.82633e-015 -9.98893e-015
lhumerus 27.1299 -21.6103 75.1253
lradius 23.05
lwrist -30.4758
lhand -27.9721 5.3336
lfingers 7.12502
lthumb -1.35897 35.309
rfemur -29.171 1.38135 14.7045
rtibia 53.5908
rfoot -18.7775 -9.44591
rtoes -19.1568
lfemur -28.8586 -3.93727 -16.7833
ltibia 50.369
lfoot -15.9193 -2.04931
ltoes -13.1262
1179
root 0.339486 14.9315 -1.92412 0.0798694 2.3397 0.480876
lowerback 20.7044 1.06921 -1.73654
upperback 6.30631 1.04162 -0.15248
thorax -4.75228 0.514418 0.572856
lowerneck -6.62313 -10.2628 -15.5661
upperneck 13.7389 -13.8914 12.1378
head 7.24475 -6.70902 5.12164
rclavicle -1.39149e-015 -7.95139e-015
rhumerus 25.8683 18.1056 -73.2533
rradius 25.4748
rwrist 48.6154
rhand -30.4243 20.326
rfingers 7.12502
rthumb -3.7272 -9.62119
lclavicle -1.39149e-015 -7.95139e-015
lhumerus 26.9865 -21.4308 75.2954
lradius 22.9744
lwrist -30.7589
lhand -27.9964 5.37969
lfingers 7.12502
lthumb -1.38247 35.355
rfemur -29.041 1.37497 14.7199
rtibia 53.4146
rfoot -18.8557 -9.67267
rtoes -20.9848
lfemur -28.7543 -3.98157 -16.7748
ltibia 50.2448
lfoot -15.9222 -2.04074
ltoes -13.0227
